PathFileType  4	(X/Y/Z) C:\Users\antoi\Documents\MyRepositories\mobilecap\ResultsAnalysis
DataRate	CameraRate	NumFrames	NumMarkers	Units	OrigDataRate	OrigDataStartFrame	OrigNumFrames
100.0	100.0	4	51	mm	100.0	361	1441
Frame#	Time	r_knee			r_shank_antsup			r_ankle			r_calc			r_5meta			r_toe			L_knee			L_shank_antsup			L_ankle			L_calc			L_5meta			L_toe			r_sh2			r_sh3			r_sh4			L_sh2			L_sh3			r_thigh1			r_thigh2			r_thigh3			r_thigh4			r_thigh5			L_thigh1			L_thigh2			L_thigh3			L_thigh4			r.ASIS			r.PSIS			L.ASIS			L.PSIS			C7			R_Shoulder			L_Shoulder			R_Sternum			L_Sternum			R_humerus			R_elbow_med			R_elbow_lat			R_forearm			R_wrist_radius			R_wrist_ulna			L_humerus			L_elbow_med			L_elbow_lat			L_forearm			L_wrist_radius			L_wrist_ulna			R_HJC			L_HJC			R_HJC_reg			L_HJC_reg			
		X1	Y1	Z1	X2	Y2	Z2	X3	Y3	Z3	X4	Y4	Z4	X5	Y5	Z5	X6	Y6	Z6	X7	Y7	Z7	X8	Y8	Z8	X9	Y9	Z9	X10	Y10	Z10	X11	Y11	Z11	X12	Y12	Z12	X13	Y13	Z13	X14	Y14	Z14	X15	Y15	Z15	X16	Y16	Z16	X17	Y17	Z17	X18	Y18	Z18	X19	Y19	Z19	X20	Y20	Z20	X21	Y21	Z21	X22	Y22	Z22	X23	Y23	Z23	X24	Y24	Z24	X25	Y25	Z25	X26	Y26	Z26	X27	Y27	Z27	X28	Y28	Z28	X29	Y29	Z29	X30	Y30	Z30	X31	Y31	Z31	X32	Y32	Z32	X33	Y33	Z33	X34	Y34	Z34	X35	Y35	Z35	X36	Y36	Z36	X37	Y37	Z37	X38	Y38	Z38	X39	Y39	Z39	X40	Y40	Z40	X41	Y41	Z41	X42	Y42	Z42	X43	Y43	Z43	X44	Y44	Z44	X45	Y45	Z45	X46	Y46	Z46	X47	Y47	Z47	X48	Y48	Z48	X49	Y49	Z49	X50	Y50	Z50	X51	Y51	Z51	

361	3.60000000	-253.13403	522.95611	-399.40750	-184.88053	439.26584	-405.41405	-290.22758	121.29511	-420.60385	-371.63595	72.55369	-467.50330	-178.56699	49.86767	-373.28790	-120.39486	83.12590	-433.14489	-252.69275	527.93133	-831.29149	-226.17739	454.53261	-856.96516	-296.83968	125.52671	-833.39031	-378.79456	73.09587	-782.59383	-185.01038	51.62845	-866.21347	-128.32895	82.18836	-802.89604	-210.02820	330.82358	-381.40649	-246.93055	461.47993	-366.12453	-286.94759	353.37137	-359.59703	-315.76649	465.13707	-849.98833	-317.82792	343.17657	-855.26935	-561.80555	586.35781	-429.44681	-455.46933	597.58737	-425.37885	-428.67408	550.50096	-381.94570	-550.52475	475.56221	-412.44809	-437.09588	495.12783	-394.95541	-528.29689	602.37347	-804.08882	-388.47378	615.48813	-803.64288	-518.92154	502.61831	-848.83570	-382.36901	510.83881	-850.60382	-602.53708	627.65227	-498.09426	-780.66244	594.58807	-564.72107	-602.06601	621.67141	-741.43390	-786.37181	592.80618	-673.17547	-644.42421	1141.80617	-620.19184	-572.35697	1072.92981	-452.71826	-597.01037	1073.82612	-794.27845	-526.34240	1048.47612	-596.57755	-528.05046	1044.14927	-651.88019	-569.22914	917.22863	-383.78448	-616.90803	714.00893	-433.15468	-616.59893	737.54166	-335.80428	-467.23144	799.03993	-369.40368	-406.41162	861.52370	-403.64953	-390.03364	820.37967	-387.25143	-620.01845	949.57137	-874.19083	-606.94515	708.89830	-819.24394	-613.44110	731.28677	-908.74963	-545.51090	767.34877	-916.00323	-404.44936	854.06962	-881.10304	-385.40382	818.99187	-889.20194	-651.24995	494.91981	-512.64855	-657.67945	495.33333	-719.50737	-635.64523	533.85267	-528.75600	-644.09163	531.21870	-689.16709	
362	3.61000000	-253.83728	523.12227	-399.49679	-185.45877	439.52170	-405.35592	-290.26653	121.35014	-420.57228	-371.59967	72.62646	-467.63668	-178.58381	49.84461	-373.34062	-120.39460	83.15790	-433.14498	-253.60279	527.88923	-831.37373	-227.07853	454.68719	-857.10364	-296.73615	125.57102	-833.36232	-378.65633	73.24187	-782.61236	-184.95918	51.58907	-866.20849	-128.23191	82.06020	-802.82879	-210.70462	331.27343	-381.15738	-247.50078	461.60776	-366.11267	-287.47100	353.24789	-359.57554	-316.64084	465.03416	-850.23903	-318.48155	342.96457	-855.09855	-562.60541	586.17302	-429.78187	-456.19376	597.65643	-425.38481	-429.42314	550.69881	-381.81608	-551.04735	475.50497	-412.29758	-437.81418	495.32989	-394.71302	-529.04110	601.98320	-804.49794	-389.42586	615.48784	-804.13342	-519.75647	502.46762	-849.30647	-383.08612	510.74815	-850.92598	-603.64887	628.51743	-498.43080	-782.22677	593.94959	-564.63669	-603.80523	621.85429	-741.46907	-787.85865	591.91916	-673.29235	-649.56102	1141.96385	-620.27137	-577.36926	1073.04447	-452.67852	-601.86187	1073.92522	-794.45944	-531.32260	1049.20190	-596.42604	-532.79666	1044.72395	-651.77031	-574.64496	917.10314	-383.73722	-622.77472	714.94286	-433.92735	-622.76404	737.71204	-335.69651	-472.88982	798.54900	-369.14061	-411.79533	860.81018	-403.07635	-395.73877	819.47540	-386.76240	-625.18835	949.17949	-873.94708	-611.26166	709.23611	-817.72611	-618.89436	730.93365	-908.12982	-550.85926	766.72318	-915.41110	-409.75085	853.36872	-880.68451	-390.77181	818.24403	-888.74500	-651.80280	495.35635	-512.52114	-658.52081	495.20367	-719.37096	-636.59785	534.38732	-528.88164	-644.90454	531.39392	-689.10600	
363	3.62000000	-254.41481	523.26081	-399.54229	-186.00117	439.74600	-405.35739	-290.32090	121.42212	-420.51791	-371.56362	72.58493	-467.74126	-178.58801	49.86693	-373.39333	-120.35028	83.22534	-433.18385	-254.40062	527.85658	-831.44930	-227.92921	454.90125	-857.42554	-296.71629	125.60420	-833.34838	-378.66400	73.24656	-782.48709	-184.95252	51.60996	-866.21368	-128.17497	82.03438	-802.70894	-211.09239	331.35162	-381.26770	-248.01505	461.79235	-366.08997	-287.83362	353.30170	-359.50773	-317.50041	464.88189	-850.46507	-319.08625	342.71269	-854.86465	-563.23387	586.03680	-429.94245	-456.83337	597.76885	-425.43510	-430.17332	550.79569	-381.84183	-551.72584	475.38228	-412.26793	-438.52535	495.45191	-394.61715	-529.59730	601.49801	-804.79479	-390.25603	615.48993	-804.41943	-520.53265	502.25847	-849.55332	-383.77439	510.74857	-851.33899	-604.62367	629.50871	-498.61440	-783.67991	593.29884	-565.01488	-605.46520	622.15052	-741.43299	-789.34723	591.11344	-673.36179	-654.40615	1142.10947	-620.22286	-582.12075	1073.29370	-452.72406	-606.47289	1074.16603	-794.65961	-535.68704	1049.64047	-596.53450	-537.36796	1045.33469	-651.71607	-579.62706	917.18706	-383.60022	-628.40446	715.86476	-434.64571	-628.47316	738.01930	-335.51050	-478.32637	798.29380	-368.32715	-416.63709	860.03245	-402.51593	-400.85282	818.48199	-386.29128	-630.03235	949.02164	-873.94635	-615.50312	709.60094	-816.21267	-624.08764	730.66528	-907.42909	-555.92467	766.19865	-914.73187	-414.59857	852.58858	-880.22750	-395.77474	817.33044	-888.19659	-652.29908	495.86437	-512.44385	-659.18025	495.19265	-719.28929	-637.23695	534.90798	-528.90130	-645.61164	531.67851	-688.98408	
364	3.63000000	-254.95534	523.33261	-399.59407	-186.51419	439.87173	-405.43011	-290.34896	121.47424	-420.47017	-371.64378	72.52304	-467.64008	-178.56889	49.91422	-373.41474	-120.33036	83.26507	-433.28583	-255.10581	528.02297	-831.75246	-228.64144	455.04961	-857.72639	-296.78607	125.61216	-833.35519	-378.74522	73.19701	-782.38661	-184.98293	51.63533	-866.22943	-128.20535	82.08260	-802.70759	-211.25064	331.10261	-381.58706	-248.58103	461.87888	-366.18449	-288.05433	353.39875	-359.42011	-318.23087	464.76874	-850.61498	-319.54030	342.60262	-854.97110	-563.80009	585.94744	-430.02455	-457.54551	597.76792	-425.51746	-430.90625	550.76795	-382.01964	-552.45001	475.20609	-412.46503	-439.21155	495.39070	-394.72309	-530.24982	601.15506	-805.07778	-391.00865	615.43166	-804.71866	-521.21586	501.99783	-849.62964	-384.48471	510.82430	-851.84899	-606.04787	629.99457	-498.80060	-784.94450	592.48830	-565.50355	-607.02291	622.58910	-741.68013	-790.79993	590.40539	-673.45641	-659.05311	1142.27107	-620.23186	-586.59581	1073.67478	-452.71365	-610.79378	1074.44644	-794.87847	-539.80770	1050.04101	-596.74555	-541.76694	1045.97165	-651.74659	-584.21062	917.42647	-383.38806	-633.79805	716.77319	-435.31041	-633.71483	738.36007	-335.41188	-483.44371	798.06140	-367.42602	-421.01112	859.20020	-401.91532	-405.41154	817.64738	-385.62228	-634.57024	949.00511	-874.04454	-619.66697	709.97391	-814.73589	-628.99245	730.50893	-906.63300	-560.79691	765.86595	-914.12640	-419.09359	851.88795	-880.00974	-400.44064	816.42900	-887.81184	-652.94284	495.98949	-512.72873	-659.88448	495.30310	-719.57235	-637.85324	534.98539	-529.14843	-646.53777	531.89600	-689.25877	
